<?xml version="1.0" standalone="no"?>
<!DOCTYPE svg PUBLIC "-//W3C//DTD SVG 20010904//EN"
 "http://www.w3.org/TR/2001/REC-SVG-20010904/DTD/svg10.dtd">
<svg version="1.0" xmlns="http://www.w3.org/2000/svg"
 width="500.000000pt" height="500.000000pt" viewBox="0 0 500.000000 500.000000"
 preserveAspectRatio="xMidYMid meet">
<metadata>
Created by potrace 1.14, written by Peter Selinger 2001-2017
</metadata>
<g transform="translate(0.000000,500.000000) scale(0.100000,-0.100000)"
fill="#000000" stroke="none">
<path d="M3508 3575 c-2 -2 -32 -5 -67 -6 -151 -6 -352 -67 -486 -148 -377
-226 -563 -615 -511 -1071 18 -167 101 -371 201 -500 72 -92 237 -227 345
-282 251 -129 575 -172 910 -121 66 10 205 54 278 88 100 47 176 98 250 169
l62 60 -22 21 c-20 19 -74 77 -255 274 -49 53 -50 53 -69 34 -59 -60 -177
-125 -281 -155 -108 -31 -347 -31 -438 0 -72 24 -139 54 -143 65 -2 4 -9 7
-17 7 -20 0 -129 111 -159 162 -15 25 -35 70 -46 100 l-18 53 791 5 791 5 2
30 c11 130 5 267 -17 385 -46 242 -197 481 -394 622 -111 79 -308 164 -425
182 -99 15 -275 28 -282 21z m214 -485 c125 -39 230 -129 292 -250 19 -39 34
-70 32 -70 -2 0 2 -19 9 -43 l13 -44 -515 0 -515 0 6 41 c12 71 79 196 134
248 138 130 354 178 544 118z"/>
<path d="M395 3540 c-1 -3 -3 -107 -3 -232 0 -204 2 -228 17 -229 9 0 242 -1
518 -2 l503 0 -48 -56 c-26 -31 -59 -69 -73 -86 -15 -16 -80 -93 -144 -170
-139 -165 -216 -255 -230 -271 -5 -6 -28 -33 -50 -60 -22 -27 -69 -82 -105
-124 -36 -41 -85 -100 -110 -130 -25 -30 -47 -57 -50 -60 -7 -7 -69 -79 -116
-136 -23 -27 -64 -75 -91 -106 l-48 -58 0 -182 0 -183 933 0 932 0 0 232 0
233 -545 0 c-300 0 -545 3 -545 6 0 6 81 106 100 124 3 3 27 32 55 65 27 33
52 62 55 65 3 3 25 30 50 60 25 30 48 57 51 60 3 3 30 34 60 70 29 36 63 76
75 90 12 14 66 77 119 140 54 63 117 138 140 165 24 28 58 68 76 90 19 22 44
51 55 65 49 56 142 167 160 189 10 13 28 33 39 45 19 20 20 34 20 205 l0 184
-899 1 c-494 1 -899 -1 -901 -4z"/>
</g>
</svg>
